<svg xmlns="http://www.w3.org/2000/svg" version="1.1" xmlns:xlink="http://www.w3.org/1999/xlink" xmlns:svgjs="http://svgjs.dev/svgjs" width="1000" height="1000" viewBox="0 0 1000 1000"><rect width="1000" height="1000" fill="#f9e17e"></rect><g transform="matrix(0.7,0,0,0.7,150.39281980726412,314.85)"><svg viewBox="0 0 378 200" data-background-color="#f9e17e" preserveAspectRatio="xMidYMid meet" height="529" width="1000" xmlns="http://www.w3.org/2000/svg" xmlns:xlink="http://www.w3.org/1999/xlink"><g id="tight-bounds" transform="matrix(1,0,0,1,-0.21212269592260213,0)"><svg viewBox="0 0 378.4242453918452 200" height="200" width="378.4242453918452"><g><svg viewBox="0 0 431.16887351289006 227.87592431686275" height="200" width="378.4242453918452"><g><rect width="5.515305429060924" height="227.87592431686275" x="165.98838720943593" y="0" fill="#454545" opacity="1" stroke-width="0" stroke="transparent" fill-opacity="1" class="rect-o-0" data-fill-palette-color="primary" rx="1%" id="o-0" data-palette-color="#454545"></rect></g><g transform="matrix(1,0,0,1,185.94166496588147,0.5668555331265139)"><svg viewBox="0 0 245.22720854700862 226.74221325060972" height="226.74221325060972" width="245.22720854700862"><g id="textblocktransform"><svg viewBox="0 0 245.22720854700862 226.74221325060972" height="226.74221325060972" width="245.22720854700862" id="textblock"><g><svg viewBox="0 0 245.22720854700862 198.764" height="198.764" width="245.22720854700862"><g transform="matrix(1,0,0,1,0,0)"><svg width="245.22720854700862" viewBox="2.15000057220459 -35.5 144.4000244140625 114.00000762939453" height="198.764" data-palette-color="#454545"><svg></svg><svg></svg><svg></svg><g class="wordmark-text-0" data-fill-palette-color="primary" id="text-0"><path xmlns="http://www.w3.org/2000/svg" d="M5.5 0h-3.3v-34.2c0 0 0.043-0.133 0.13-0.4 0.08-0.267 0.32-0.4 0.72-0.4v0h12c0 1.1-0.017 1.89-0.05 2.37-0.033 0.487-0.1 0.797-0.2 0.93-0.1 0.133-0.267 0.2-0.5 0.2v0h-8.05v30.7c0 0-0.017 0.133-0.05 0.4-0.033 0.267-0.267 0.4-0.7 0.4zM13.05-17.2h-10.3v-3.7h11.05c0 1.533-0.033 2.533-0.1 3-0.067 0.467-0.283 0.7-0.65 0.7zM26.15 0.5v0c-1.633 0-3.023-0.277-4.17-0.83-1.153-0.547-2.087-1.503-2.8-2.87-0.72-1.367-1.247-3.227-1.58-5.58-0.333-2.347-0.5-5.32-0.5-8.92v0c0-4.433 0.35-7.95 1.05-10.55 0.7-2.6 1.76-4.46 3.18-5.58 1.413-1.113 3.203-1.67 5.37-1.67v0c1.6 0 2.967 0.29 4.1 0.87 1.133 0.587 2.05 1.553 2.75 2.9 0.7 1.353 1.21 3.153 1.53 5.4 0.313 2.253 0.47 5.08 0.47 8.48v0c0 4.6-0.323 8.233-0.97 10.9-0.653 2.667-1.67 4.573-3.05 5.72-1.387 1.153-3.18 1.73-5.38 1.73zM26.3-3.7v0c1.233 0 2.193-0.46 2.88-1.38 0.68-0.913 1.18-2.413 1.5-4.5 0.313-2.08 0.47-4.803 0.47-8.17v0c0-3.333-0.133-5.993-0.4-7.98-0.267-1.98-0.723-3.403-1.37-4.27-0.653-0.867-1.58-1.3-2.78-1.3v0c-1.167 0-2.117 0.467-2.85 1.4-0.733 0.933-1.267 2.467-1.6 4.6-0.333 2.133-0.5 5-0.5 8.6v0c0 3.1 0.143 5.6 0.43 7.5 0.28 1.9 0.763 3.29 1.45 4.17 0.68 0.887 1.603 1.33 2.77 1.33zM45.05-14.2h-4.45c-0.5 0-0.767-0.083-0.8-0.25-0.033-0.167-0.05-0.45-0.05-0.85v0-18.75c0-0.1 0.01-0.283 0.03-0.55 0.013-0.267 0.203-0.4 0.57-0.4v0h4.65c2.1 0 3.833 0.34 5.2 1.02 1.367 0.687 2.377 1.753 3.03 3.2 0.647 1.453 0.97 3.347 0.97 5.68v0c0 2.067-0.24 3.79-0.72 5.17-0.487 1.387-1.153 2.497-2 3.33-0.853 0.833-1.83 1.44-2.93 1.82-1.1 0.387-2.267 0.58-3.5 0.58zM39.2 0v0-34.2c0 0 0.043-0.133 0.13-0.4 0.08-0.267 0.32-0.4 0.72-0.4v0h2.4c0.4 0 0.633 0.133 0.7 0.4 0.067 0.267 0.1 0.4 0.1 0.4v0 33.4c0 0.267-0.057 0.45-0.17 0.55-0.12 0.1-0.463 0.167-1.03 0.2-0.567 0.033-1.517 0.05-2.85 0.05zM52.5 0.1v0c-0.3 0-0.657-0.007-1.07-0.02-0.42-0.02-0.863-0.047-1.33-0.08v0c-0.167-2.867-0.507-5.277-1.02-7.23-0.52-1.947-1.07-3.497-1.65-4.65-0.587-1.147-1.097-1.97-1.53-2.47-0.433-0.5-0.65-0.75-0.65-0.75v0c0 0-0.033-0.1-0.1-0.3-0.067-0.2 0.067-0.4 0.4-0.6v0l2.2-1.2c0.4 0 0.683 0.15 0.85 0.45v0c0 0 0.267 0.3 0.8 0.9 0.533 0.6 1.167 1.54 1.9 2.82 0.733 1.287 1.417 2.93 2.05 4.93 0.633 2 1.033 4.4 1.2 7.2v0c0 0.367-0.1 0.623-0.3 0.77-0.2 0.153-0.783 0.23-1.75 0.23zM43.15-31.45v13.5h2.3c0.933 0 1.71-0.243 2.33-0.73 0.613-0.48 1.087-1.263 1.42-2.35 0.333-1.08 0.5-2.503 0.5-4.27v0c0-1.267-0.117-2.367-0.35-3.3-0.233-0.933-0.64-1.643-1.22-2.13-0.587-0.48-1.38-0.72-2.38-0.72v0zM70.75 0v0-34.4c0 0 0.033-0.027 0.1-0.08 0.067-0.047 0.3-0.07 0.7-0.07v0h2.4c0.433 0 0.683 0.023 0.75 0.07 0.067 0.053 0.1 0.08 0.1 0.08v0 33.6c0 0.267-0.057 0.45-0.17 0.55-0.12 0.1-0.463 0.167-1.03 0.2-0.567 0.033-1.517 0.05-2.85 0.05zM80.95-31.2h-17v-3c0-0.533 0.283-0.8 0.85-0.8v0h17v3c0 0.3-0.067 0.507-0.2 0.62-0.133 0.12-0.35 0.18-0.65 0.18zM96.4 0v0-34.2c0-0.267 0.06-0.45 0.18-0.55 0.113-0.1 0.447-0.167 1-0.2 0.547-0.033 1.503-0.05 2.87-0.05v0 34.2c0 0.267-0.05 0.45-0.15 0.55-0.1 0.1-0.433 0.167-1 0.2-0.567 0.033-1.533 0.05-2.9 0.05zM84.4 0v0-34.2c0-0.267 0.05-0.45 0.15-0.55 0.1-0.1 0.433-0.167 1-0.2 0.567-0.033 1.533-0.05 2.9-0.05v0 34.2c0 0.267-0.05 0.45-0.15 0.55-0.1 0.1-0.433 0.167-1 0.2-0.567 0.033-1.533 0.05-2.9 0.05zM98.25-16.95h-11.85v-3.8h11.85zM116.7 0h-11.85v-34.2c0 0 0.043-0.133 0.13-0.4 0.08-0.267 0.32-0.4 0.72-0.4v0h12c0 1.1-0.017 1.9-0.05 2.4-0.033 0.5-0.1 0.833-0.2 1-0.1 0.167-0.267 0.25-0.5 0.25v0h-8.05v27.7h8.6c0 1.133-0.017 1.957-0.05 2.47-0.033 0.52-0.1 0.847-0.2 0.98-0.1 0.133-0.283 0.2-0.55 0.2zM115.7-17.2h-10.3v-3.7h11.05c0 1.533-0.033 2.533-0.1 3-0.067 0.467-0.283 0.7-0.65 0.7z" fill="#454545" fill-rule="nonzero" stroke="none" stroke-width="1" stroke-linecap="butt" stroke-linejoin="miter" stroke-miterlimit="10" stroke-dasharray="" stroke-dashoffset="0" font-family="none" font-weight="none" font-size="none" text-anchor="none" style="mix-blend-mode: normal" data-fill-palette-color="primary" opacity="1"></path><path xmlns="http://www.w3.org/2000/svg" d="M14.05 39h-11.9v-33.85c0-0.367 0.067-0.633 0.2-0.8 0.133-0.167 0.483-0.267 1.05-0.3 0.567-0.033 1.517-0.05 2.85-0.05v0 31.2h8.6v3c0 0.333-0.073 0.55-0.22 0.65-0.153 0.1-0.347 0.15-0.58 0.15zM24.75 39.5v0c-1.633 0-3.023-0.277-4.17-0.83-1.153-0.547-2.087-1.503-2.8-2.87-0.72-1.367-1.247-3.227-1.58-5.58-0.333-2.347-0.5-5.32-0.5-8.92v0c0-4.433 0.35-7.95 1.05-10.55 0.7-2.6 1.76-4.46 3.18-5.58 1.413-1.113 3.203-1.67 5.37-1.67v0c1.6 0 2.967 0.29 4.1 0.87 1.133 0.587 2.05 1.553 2.75 2.9 0.7 1.353 1.21 3.153 1.53 5.4 0.313 2.253 0.47 5.08 0.47 8.48v0c0 4.6-0.323 8.233-0.97 10.9-0.653 2.667-1.67 4.573-3.05 5.72-1.387 1.153-3.18 1.73-5.38 1.73zM24.9 35.3v0c1.233 0 2.193-0.46 2.88-1.38 0.68-0.913 1.18-2.413 1.5-4.5 0.313-2.08 0.47-4.803 0.47-8.17v0c0-3.333-0.133-5.993-0.4-7.98-0.267-1.98-0.723-3.403-1.37-4.27-0.653-0.867-1.58-1.3-2.78-1.3v0c-1.167 0-2.117 0.467-2.85 1.4-0.733 0.933-1.267 2.467-1.6 4.6-0.333 2.133-0.5 5-0.5 8.6v0c0 3.1 0.143 5.6 0.43 7.5 0.28 1.9 0.763 3.29 1.45 4.17 0.68 0.887 1.603 1.33 2.77 1.33zM45.05 39.35v0c-0.633 0-1.14-0.277-1.52-0.83-0.387-0.547-0.68-1.237-0.88-2.07v0c-0.333-1.367-0.733-3.077-1.2-5.13-0.467-2.047-0.957-4.247-1.47-6.6-0.52-2.347-1.037-4.67-1.55-6.97-0.52-2.3-0.98-4.4-1.38-6.3-0.4-1.9-0.723-3.417-0.97-4.55-0.253-1.133-0.38-1.7-0.38-1.7v0c-0.1-0.433-0.117-0.743-0.05-0.93 0.067-0.18 0.383-0.27 0.95-0.27v0h3.3l4.15 19.35c0.3 1.467 0.567 2.94 0.8 4.42 0.233 1.487 0.45 2.887 0.65 4.2 0.2 1.32 0.383 2.513 0.55 3.58v0c0.133-1.067 0.293-2.26 0.48-3.58 0.18-1.313 0.387-2.713 0.62-4.2 0.233-1.48 0.467-2.953 0.7-4.42v0l3.75-18.15c0.067-0.4 0.16-0.7 0.28-0.9 0.113-0.2 0.37-0.3 0.77-0.3v0h3.5l-7.7 35.15c-0.533 0.067-1.04 0.117-1.52 0.15-0.487 0.033-1.113 0.05-1.88 0.05zM70.4 39h-11.85v-34.2c0 0 0.043-0.133 0.13-0.4 0.08-0.267 0.32-0.4 0.72-0.4v0h12c0 1.1-0.017 1.9-0.05 2.4-0.033 0.5-0.1 0.833-0.2 1-0.1 0.167-0.267 0.25-0.5 0.25v0h-8.05v27.7h8.6c0 1.133-0.017 1.957-0.05 2.47-0.033 0.52-0.1 0.847-0.2 0.98-0.1 0.133-0.283 0.2-0.55 0.2zM69.4 21.8h-10.3v-3.7h11.05c0 1.533-0.033 2.533-0.1 3-0.067 0.467-0.283 0.7-0.65 0.7zM90.8 39.5v0c-1.633 0-3.023-0.277-4.17-0.83-1.153-0.547-2.087-1.503-2.8-2.87-0.72-1.367-1.247-3.227-1.58-5.58-0.333-2.347-0.5-5.32-0.5-8.92v0c0-4.433 0.35-7.95 1.05-10.55 0.7-2.6 1.76-4.46 3.18-5.58 1.413-1.113 3.203-1.67 5.37-1.67v0c1.6 0 2.967 0.29 4.1 0.87 1.133 0.587 2.05 1.553 2.75 2.9 0.7 1.353 1.21 3.153 1.53 5.4 0.313 2.253 0.47 5.08 0.47 8.48v0c0 4.6-0.323 8.233-0.97 10.9-0.653 2.667-1.67 4.573-3.05 5.72-1.387 1.153-3.18 1.73-5.38 1.73zM90.95 35.3v0c1.233 0 2.193-0.46 2.88-1.38 0.68-0.913 1.18-2.413 1.5-4.5 0.313-2.08 0.47-4.803 0.47-8.17v0c0-3.333-0.133-5.993-0.4-7.98-0.267-1.98-0.723-3.403-1.37-4.27-0.653-0.867-1.58-1.3-2.78-1.3v0c-1.167 0-2.117 0.467-2.85 1.4-0.733 0.933-1.267 2.467-1.6 4.6-0.333 2.133-0.5 5-0.5 8.6v0c0 3.1 0.143 5.6 0.43 7.5 0.28 1.9 0.763 3.29 1.45 4.17 0.68 0.887 1.603 1.33 2.77 1.33zM107.2 39h-3.3v-34.2c0 0 0.043-0.133 0.13-0.4 0.08-0.267 0.32-0.4 0.72-0.4v0h12c0 1.1-0.017 1.89-0.05 2.37-0.033 0.487-0.1 0.797-0.2 0.93-0.1 0.133-0.267 0.2-0.5 0.2v0h-8.05v30.7c0 0-0.017 0.133-0.05 0.4-0.033 0.267-0.267 0.4-0.7 0.4zM114.75 21.8h-10.3v-3.7h11.05c0 1.533-0.033 2.533-0.1 3-0.067 0.467-0.283 0.7-0.65 0.7z" fill="#454545" fill-rule="nonzero" stroke="none" stroke-width="1" stroke-linecap="butt" stroke-linejoin="miter" stroke-miterlimit="10" stroke-dasharray="" stroke-dashoffset="0" font-family="none" font-weight="none" font-size="none" text-anchor="none" style="mix-blend-mode: normal" data-fill-palette-color="primary" opacity="1"></path><path xmlns="http://www.w3.org/2000/svg" d="M5.5 78h-3.3v-34.2c0 0 0.043-0.133 0.13-0.4 0.08-0.267 0.32-0.4 0.72-0.4v0h12c0 1.1-0.017 1.89-0.05 2.37-0.033 0.487-0.1 0.797-0.2 0.93-0.1 0.133-0.267 0.2-0.5 0.2v0h-8.05v30.7c0 0-0.017 0.133-0.05 0.4-0.033 0.267-0.267 0.4-0.7 0.4zM13.05 60.8h-10.3v-3.7h11.05c0 1.533-0.033 2.533-0.1 3-0.067 0.467-0.283 0.7-0.65 0.7zM26.15 78.5v0c-1.633 0-3.023-0.277-4.17-0.83-1.153-0.547-2.087-1.503-2.8-2.87-0.72-1.367-1.247-3.227-1.58-5.58-0.333-2.347-0.5-5.32-0.5-8.92v0c0-4.433 0.35-7.95 1.05-10.55 0.7-2.6 1.76-4.46 3.18-5.58 1.413-1.113 3.203-1.67 5.37-1.67v0c1.6 0 2.967 0.29 4.1 0.87 1.133 0.587 2.05 1.553 2.75 2.9 0.7 1.353 1.21 3.153 1.53 5.4 0.313 2.253 0.47 5.08 0.47 8.48v0c0 4.6-0.323 8.233-0.97 10.9-0.653 2.667-1.67 4.573-3.05 5.72-1.387 1.153-3.18 1.73-5.38 1.73zM26.3 74.3v0c1.233 0 2.193-0.46 2.88-1.38 0.68-0.913 1.18-2.413 1.5-4.5 0.313-2.08 0.47-4.803 0.47-8.17v0c0-3.333-0.133-5.993-0.4-7.98-0.267-1.98-0.723-3.403-1.37-4.27-0.653-0.867-1.58-1.3-2.78-1.3v0c-1.167 0-2.117 0.467-2.85 1.4-0.733 0.933-1.267 2.467-1.6 4.6-0.333 2.133-0.5 5-0.5 8.6v0c0 3.1 0.143 5.6 0.43 7.5 0.28 1.9 0.763 3.29 1.45 4.17 0.68 0.887 1.603 1.33 2.77 1.33zM47.6 78.5v0c-1.633 0-3.023-0.277-4.17-0.83-1.153-0.547-2.087-1.503-2.8-2.87-0.72-1.367-1.247-3.227-1.58-5.58-0.333-2.347-0.5-5.32-0.5-8.92v0c0-4.433 0.35-7.95 1.05-10.55 0.7-2.6 1.76-4.46 3.18-5.58 1.413-1.113 3.203-1.67 5.37-1.67v0c1.6 0 2.967 0.29 4.1 0.87 1.133 0.587 2.05 1.553 2.75 2.9 0.7 1.353 1.21 3.153 1.53 5.4 0.313 2.253 0.47 5.08 0.47 8.48v0c0 4.6-0.323 8.233-0.97 10.9-0.653 2.667-1.67 4.573-3.05 5.72-1.387 1.153-3.18 1.73-5.38 1.73zM47.75 74.3v0c1.233 0 2.193-0.46 2.88-1.38 0.68-0.913 1.18-2.413 1.5-4.5 0.313-2.08 0.47-4.803 0.47-8.17v0c0-3.333-0.133-5.993-0.4-7.98-0.267-1.98-0.723-3.403-1.37-4.27-0.653-0.867-1.58-1.3-2.78-1.3v0c-1.167 0-2.117 0.467-2.85 1.4-0.733 0.933-1.267 2.467-1.6 4.6-0.333 2.133-0.5 5-0.5 8.6v0c0 3.1 0.143 5.6 0.43 7.5 0.28 1.9 0.763 3.29 1.45 4.17 0.68 0.887 1.603 1.33 2.77 1.33zM64.05 78v0-34.4c0 0 0.033-0.027 0.1-0.08 0.067-0.047 0.3-0.07 0.7-0.07v0h2.4c0.433 0 0.683 0.023 0.75 0.07 0.067 0.053 0.1 0.08 0.1 0.08v0 33.6c0 0.267-0.057 0.45-0.17 0.55-0.12 0.1-0.463 0.167-1.03 0.2-0.567 0.033-1.517 0.05-2.85 0.05zM74.25 46.8h-17v-3c0-0.533 0.283-0.8 0.85-0.8v0h17v3c0 0.3-0.067 0.507-0.2 0.62-0.133 0.12-0.35 0.18-0.65 0.18zM83.95 78h-6.3v-34.05c0-0.3 0.093-0.533 0.28-0.7 0.18-0.167 0.537-0.25 1.07-0.25v0h4.95c1 0 2 0.107 3 0.32 1 0.22 1.9 0.607 2.7 1.16 0.8 0.547 1.45 1.32 1.95 2.32 0.5 1 0.75 2.317 0.75 3.95v0c0 1.833-0.25 3.317-0.75 4.45-0.5 1.133-1.117 1.99-1.85 2.57-0.733 0.587-1.467 0.93-2.2 1.03v0c0.567 0.033 1.193 0.16 1.88 0.38 0.68 0.213 1.33 0.577 1.95 1.09 0.613 0.52 1.113 1.247 1.5 2.18 0.38 0.933 0.57 2.15 0.57 3.65v0c0 1.667-0.157 3.15-0.47 4.45-0.32 1.3-0.77 2.417-1.35 3.35-0.587 0.933-1.28 1.707-2.08 2.32-0.8 0.62-1.667 1.07-2.6 1.35-0.933 0.287-1.933 0.43-3 0.43zM81.8 60.8v13.65h2.25c0.633 0 1.227-0.15 1.78-0.45 0.547-0.3 1.037-0.777 1.47-1.43 0.433-0.647 0.777-1.47 1.03-2.47 0.247-1 0.37-2.217 0.37-3.65v0c0-1.3-0.107-2.327-0.32-3.08-0.22-0.747-0.537-1.31-0.95-1.69-0.42-0.387-0.913-0.63-1.48-0.73-0.567-0.1-1.183-0.15-1.85-0.15v0zM81.8 46.6v10.7h2.45c0.7 0 1.327-0.2 1.88-0.6 0.547-0.4 0.98-1.033 1.3-1.9 0.313-0.867 0.47-1.967 0.47-3.3v0c0-1.367-0.173-2.4-0.52-3.1-0.353-0.7-0.813-1.177-1.38-1.43-0.567-0.247-1.167-0.37-1.8-0.37v0zM97.15 78.1v0c-0.267 0-0.633-0.017-1.1-0.05-0.467-0.033-0.95-0.067-1.45-0.1v0l8.9-34.4c0.1-0.467 0.617-0.7 1.55-0.7v0c0.333 0 0.677 0.017 1.03 0.05 0.347 0.033 0.637 0.067 0.87 0.1v0l8.95 34.25c0.067 0.267-0.007 0.473-0.22 0.62-0.22 0.153-0.73 0.23-1.53 0.23v0c-0.3 0-0.64-0.007-1.02-0.02-0.387-0.02-0.847-0.047-1.38-0.08v0l-4.7-19.7c-0.267-1.133-0.517-2.283-0.75-3.45-0.233-1.167-0.44-2.293-0.62-3.38-0.187-1.08-0.313-2.02-0.38-2.82v0c-0.067 0.8-0.19 1.74-0.37 2.82-0.187 1.087-0.397 2.213-0.63 3.38-0.233 1.167-0.5 2.317-0.8 3.45v0l-4.45 19c-0.067 0.267-0.2 0.467-0.4 0.6-0.2 0.133-0.7 0.2-1.5 0.2zM111.7 69.1h-11.95v-3.7h11.95zM130.05 78h-11.9v-33.85c0-0.367 0.067-0.633 0.2-0.8 0.133-0.167 0.483-0.267 1.05-0.3 0.567-0.033 1.517-0.05 2.85-0.05v0 31.2h8.6v3c0 0.333-0.073 0.55-0.22 0.65-0.153 0.1-0.347 0.15-0.58 0.15zM145.75 78h-11.9v-33.85c0-0.367 0.067-0.633 0.2-0.8 0.133-0.167 0.483-0.267 1.05-0.3 0.567-0.033 1.517-0.05 2.85-0.05v0 31.2h8.6v3c0 0.333-0.073 0.55-0.22 0.65-0.153 0.1-0.347 0.15-0.58 0.15z" fill="#454545" fill-rule="nonzero" stroke="none" stroke-width="1" stroke-linecap="butt" stroke-linejoin="miter" stroke-miterlimit="10" stroke-dasharray="" stroke-dashoffset="0" font-family="none" font-weight="none" font-size="none" text-anchor="none" style="mix-blend-mode: normal" data-fill-palette-color="primary" opacity="1"></path></g></svg></g></svg></g><g transform="matrix(1,0,0,1,0,213.20197232738462)"><svg viewBox="0 0 143.97289413794874 13.540240923225086" height="13.540240923225086" width="143.97289413794874"><g transform="matrix(1,0,0,1,0,0)"><svg width="143.97289413794874" viewBox="-1.75 -35.29999923706055 383.82000732421875 36.099998474121094" height="13.540240923225086" data-palette-color="#454545"><path d="M29.5-0.9L33.65-0.4 33.65 0 21.4 0 21.4-0.4 25.5-0.9 20.8-13.7 8.7-13.7 4.55-2.65Q4.35-2.1 4.35-1.75L4.35-1.75Q4.35-1.2 4.67-0.98 5-0.75 5.85-0.65L5.85-0.65 8.9-0.4 8.9 0-1.75 0-1.75-0.4 1.05-0.65Q2.3-0.75 2.83-1.15 3.35-1.55 3.75-2.65L3.75-2.65 16-35.3 16.9-35.3 29.5-0.9ZM9-14.5L20.5-14.5 14.9-29.75 14.7-29.75 9-14.5ZM56.85-34.5L68.8-34.5 68.8-34.1 65.2-33.7Q64-33.55 63.6-33.1 63.2-32.65 63.2-31.45L63.2-31.45 63.2 0.8 62.7 0.8 40.25-31.05 40.05-31.05 40.05-3.05Q40.05-1.85 40.35-1.38 40.65-0.9 41.55-0.8L41.55-0.8 45.1-0.4 45.1 0 34.15 0 34.15-0.4 37.75-0.8Q38.65-0.9 38.95-1.38 39.25-1.85 39.25-3.05L39.25-3.05 39.25-32.15 39.05-32.45Q38.35-33.45 37.72-33.77 37.1-34.1 35.9-34.1L35.9-34.1 35.05-34.1 35.05-34.5 42.5-34.5 62.2-6.9 62.4-6.9 62.4-31.45Q62.4-32.65 62.1-33.15 61.8-33.65 60.9-33.7L60.9-33.7 56.85-34.1 56.85-34.5ZM95.55-31.85Q98.59-29.7 100.3-25.95 102-22.2 102-17.45L102-17.45Q102-12.7 100.3-8.8 98.59-4.9 95.55-2.7L95.55-2.7Q93.59-1.3 91.07-0.65 88.55 0 84.89 0L84.89 0 71.59 0 71.59-0.4 75.69-0.8 75.69-33.7 71.59-34.1 71.59-34.5 84.89-34.5Q91.69-34.5 95.55-31.85L95.55-31.85ZM93.75-3.55Q95.34-5.6 96.27-9.38 97.19-13.15 97.19-17.7L97.19-17.7Q97.19-22.15 96.32-25.55 95.44-28.95 93.75-30.95L93.75-30.95Q92.34-32.6 90.3-33.25 88.25-33.9 84.44-33.9L84.44-33.9 79.55-33.9 79.55-0.6 84.44-0.6Q88.44-0.6 90.44-1.25 92.44-1.9 93.75-3.55L93.75-3.55ZM146.29-0.9L150.44-0.4 150.44 0 138.19 0 138.19-0.4 142.29-0.9 137.59-13.7 125.49-13.7 121.34-2.65Q121.14-2.1 121.14-1.75L121.14-1.75Q121.14-1.2 121.47-0.98 121.79-0.75 122.64-0.65L122.64-0.65 125.69-0.4 125.69 0 115.04 0 115.04-0.4 117.84-0.65Q119.09-0.75 119.62-1.15 120.14-1.55 120.54-2.65L120.54-2.65 132.79-35.3 133.69-35.3 146.29-0.9ZM125.79-14.5L137.29-14.5 131.69-29.75 131.49-29.75 125.79-14.5ZM173.64-34.5L185.59-34.5 185.59-34.1 181.99-33.7Q180.79-33.55 180.39-33.1 179.99-32.65 179.99-31.45L179.99-31.45 179.99 0.8 179.49 0.8 157.04-31.05 156.84-31.05 156.84-3.05Q156.84-1.85 157.14-1.38 157.44-0.9 158.34-0.8L158.34-0.8 161.89-0.4 161.89 0 150.94 0 150.94-0.4 154.54-0.8Q155.44-0.9 155.74-1.38 156.04-1.85 156.04-3.05L156.04-3.05 156.04-32.15 155.84-32.45Q155.14-33.45 154.51-33.77 153.89-34.1 152.69-34.1L152.69-34.1 151.84-34.1 151.84-34.5 159.29-34.5 178.99-6.9 179.19-6.9 179.19-31.45Q179.19-32.65 178.89-33.15 178.59-33.65 177.69-33.7L177.69-33.7 173.64-34.1 173.64-34.5ZM215.33-0.9L219.48-0.4 219.48 0 207.23 0 207.23-0.4 211.33-0.9 206.63-13.7 194.53-13.7 190.38-2.65Q190.18-2.1 190.18-1.75L190.18-1.75Q190.18-1.2 190.51-0.98 190.83-0.75 191.68-0.65L191.68-0.65 194.73-0.4 194.73 0 184.08 0 184.08-0.4 186.88-0.65Q188.13-0.75 188.66-1.15 189.18-1.55 189.58-2.65L189.58-2.65 201.83-35.3 202.73-35.3 215.33-0.9ZM194.83-14.5L206.33-14.5 200.73-29.75 200.53-29.75 194.83-14.5ZM224.83-33.7L224.83-0.8 220.73-0.4 220.73 0 245.23 0 246.48-10.9 245.88-11 242.48-2.45Q242.03-1.35 241.48-0.98 240.93-0.6 239.73-0.6L239.73-0.6 228.68-0.6 228.68-33.7 233.03-34.1 233.03-34.5 220.73-34.5 220.73-34.1 224.83-33.7ZM265.08-34.5L275.73-34.5 275.73-34.1 272.93-33.85Q271.73-33.75 271.25-33.38 270.78-33 270.23-31.85L270.23-31.85 261.53-13.7 261.53-0.8 265.88-0.4 265.88 0 253.33 0 253.33-0.4 257.68-0.8 257.68-13.45 246.83-33.7 242.73-34.1 242.73-34.5 255.18-34.5 255.18-34.1 250.83-33.7 260.98-14.75 261.23-14.75 269.43-31.85Q269.63-32.3 269.63-32.8L269.63-32.8Q269.63-33.3 269.28-33.55 268.93-33.8 268.13-33.85L268.13-33.85 265.08-34.1 265.08-34.5ZM289.08-33.95L289.08-0.8 283.68-0.4 283.68 0 298.33 0 298.33-0.4 292.93-0.8 292.93-33.95 300.23-33.95Q301.43-33.95 301.95-33.58 302.48-33.2 302.93-32.05L302.93-32.05 306.03-24.35 306.43-24.45 305.33-35.3 305.03-35.3Q303.93-34.8 303.15-34.65 302.38-34.5 301.18-34.5L301.18-34.5 281.93-34.5Q280.73-34.5 279.95-34.65 279.18-34.8 278.08-35.3L278.08-35.3 277.78-35.3 275.83-24.45 276.23-24.35 279.68-32.05Q280.18-33.2 280.73-33.58 281.28-33.95 282.48-33.95L282.48-33.95 289.08-33.95ZM309.88-34.1L309.88-34.5 321.93-34.5 321.93-34.1 317.82-33.7 317.82-0.8 321.93-0.4 321.93 0 309.88 0 309.88-0.4 313.98-0.8 313.98-33.7 309.88-34.1ZM349.92-3.4Q348.47-1.8 346.35-0.85 344.22 0.1 341.97 0.1L341.97 0.1Q336.72 0.1 333.87-4.42 331.02-8.95 331.02-17.25L331.02-17.25Q331.02-25.6 333.87-30.15 336.72-34.7 342.02-34.7L342.02-34.7Q344.92-34.7 347.32-33.38 349.72-32.05 351.22-29.6L351.22-29.6Q352.72-27.1 353.42-23.25L353.42-23.25 354.12-23.45 353.62-34.7 352.97-34.7 351.77-32.3Q348.87-33.85 346.5-34.58 344.12-35.3 341.87-35.3L341.87-35.3Q337.57-35.3 333.97-32.9 330.37-30.5 328.3-26.35 326.22-22.2 326.22-17.25L326.22-17.25Q326.22-12.25 328.3-8.13 330.37-4 334-1.6 337.62 0.8 341.97 0.8L341.97 0.8Q344.42 0.8 347.05-0.15 349.67-1.1 351.92-2.75L351.92-2.75 353.62 0 354.27 0 354.27-11.5 353.62-11.6Q352.37-6.15 349.92-3.4L349.92-3.4ZM371.22 0.8Q374.32 0.8 376.8-0.5 379.27-1.8 380.67-4.08 382.07-6.35 382.07-9.25L382.07-9.25Q382.07-11.85 380.94-13.63 379.82-15.4 378-16.6 376.17-17.8 373.17-19.15L373.17-19.15Q369.82-20.7 368-21.8 366.17-22.9 365.15-24.4 364.12-25.9 364.12-28.1L364.12-28.1Q364.12-31.15 365.97-32.93 367.82-34.7 370.92-34.7L370.92-34.7Q376.07-34.7 378.57-29.55L378.57-29.55Q379.82-27 380.62-23.65L380.62-23.65 381.12-23.8 380.62-34.7 379.97-34.7 378.77-32.3Q376.72-33.9 374.94-34.6 373.17-35.3 371.12-35.3L371.12-35.3Q368.17-35.3 365.85-34.08 363.52-32.85 362.19-30.68 360.87-28.5 360.87-25.75L360.87-25.75Q360.87-23.05 362.1-21.18 363.32-19.3 365.17-18.13 367.02-16.95 369.77-15.75L369.77-15.75Q373.12-14.3 374.97-13.2 376.82-12.1 377.9-10.55 378.97-9 378.97-6.75L378.97-6.75Q378.97-3.55 376.94-1.68 374.92 0.2 371.32 0.2L371.32 0.2Q367.12 0.2 364.57-2.65L364.57-2.65Q363.32-4.05 362.55-5.95 361.77-7.85 361.02-11.25L361.02-11.25 360.57-11.15 361.22 0.8 361.87 0.8 362.92-1.95Q364.47-0.65 366.67 0.08 368.87 0.8 371.22 0.8L371.22 0.8Z" opacity="1" transform="matrix(1,0,0,1,0,0)" fill="#454545" class="slogan-text-1" data-fill-palette-color="secondary" id="text-1"></path></svg></g></svg></g></svg></g></svg></g><g transform="matrix(1,0,0,1,0,39.17080643128703)"><svg viewBox="0 0 151.5504148820513 149.53431145428868" height="149.53431145428868" width="151.5504148820513"><g><svg version="1.1" xmlns="http://www.w3.org/2000/svg" xmlns:xlink="http://www.w3.org/1999/xlink" x="0" y="0" viewBox="1.3083207607269287 1.7630000114440918 96.22892761230469 94.94877624511719" enable-background="new 0 0 100 100" xml:space="preserve" height="149.53431145428868" width="151.5504148820513" class="icon-icon-0" data-fill-palette-color="accent" id="icon-0"><g fill="#454545" data-fill-palette-color="accent"><path d="M58.453 85.914c2.111-6.338 16.9-24.295 26.406-27.464 4.227 10.563 9.508 29.577 6.339 32.745C88.029 94.365 63.734 88.027 58.453 85.914z" fill="#454545" data-fill-palette-color="accent"></path><path d="M85.917 58.45c2.112-1.056 5.281-3.169 9.507 1.057 2.112 2.112 4.227 29.576-2.111 30.634C93.312 84.857 92.255 69.014 85.917 58.45z" fill="#454545" data-fill-palette-color="accent"></path><path d="M73.627 36.165c-0.084 0.038-0.173 0.067-0.256 0.108-0.635 0.312-1.234 0.69-1.727 1.13-0.24 0.222-0.468 0.449-0.619 0.702-0.432 0.078-0.846 0.159-1.383 0.448-0.334-0.473-0.387-1.105-0.365-1.67 0.3-0.393 0.611-0.747 0.955-1.051 0.654-0.583 1.369-1.026 2.106-1.398-0.899-1.178-1.881-2.401-2.926-3.65-0.257 0.091-0.513 0.183-0.759 0.291-0.625 0.274-1.219 0.604-1.701 0.995-0.236 0.197-0.458 0.397-0.604 0.625-0.418 0.044-0.824 0.092-1.361 0.36-0.334-0.458-0.379-1.086-0.344-1.643 0.311-0.375 0.629-0.706 0.979-0.983 0.69-0.557 1.435-0.957 2.187-1.289 0.049-0.022 0.101-0.037 0.149-0.058-1.048-1.207-2.158-2.432-3.304-3.66-0.483 0.419-0.961 0.908-1.475 1.414l-0.845 0.813c-0.503 0.027-1.024 0.051-1.578-0.093 0.052-0.581 0.104-1.032 0.159-1.501 0.271-0.214 0.518-0.471 0.78-0.724 0.469-0.461 0.954-0.957 1.503-1.441-1.258-1.309-2.561-2.612-3.893-3.898-0.014 0.007-0.029 0.011-0.041 0.018-0.558 0.295-1.039 0.673-1.4 1.124-0.178 0.228-0.342 0.465-0.444 0.735-0.409 0.137-0.805 0.319-1.317 0.611-0.358-0.438-0.523-0.97-0.617-1.509 0.212-0.407 0.441-0.807 0.732-1.16 0.43-0.536 0.943-0.979 1.494-1.336-1.3-1.216-2.623-2.404-3.958-3.556-0.479 0.186-0.914 0.418-1.252 0.709-0.233 0.205-0.438 0.422-0.56 0.686-0.42 0.112-0.83 0.295-1.338 0.667-0.374-0.459-0.519-1.087-0.523-1.71 0.287-0.475 0.641-0.906 1.047-1.247 0.276-0.235 0.569-0.424 0.867-0.595-1.062-0.882-2.127-1.72-3.191-2.536-0.487 0.264-0.958 0.556-1.375 0.904-0.287 0.245-0.567 0.496-0.786 0.786-0.48 0.084-0.94 0.182-1.537 0.38-0.205-0.572-0.167-1.188-0.089-1.761 0.341-0.369 0.684-0.72 1.061-1.028 0.288-0.239 0.596-0.444 0.903-0.649-0.821-0.598-1.637-1.161-2.449-1.707-0.492 0.185-0.963 0.396-1.361 0.664-0.26 0.181-0.505 0.368-0.674 0.593-0.429 0.021-0.847 0.058-1.41 0.293-0.289-0.498-0.283-1.134-0.194-1.7 0.348-0.363 0.709-0.682 1.096-0.938 0.146-0.097 0.294-0.183 0.442-0.268-2.911-1.799-5.716-3.195-8.277-3.995C20.338 9.333 14.529 13.118 2.469 33.099c2.112 7.394 7.394 29.577 43.308 46.477 2.113-9.508 15.845-26.407 32.747-33.801C78.523 43.855 76.662 40.365 73.627 36.165z" fill="#454545" data-fill-palette-color="accent"></path><path d="M89.086 94.365C7.75 80.633 1.413 32.043 1.413 32.043s-3.168 25.352 25.352 48.59C56.341 103.871 95.16 95.391 89.086 94.365z" fill="#454545" data-fill-palette-color="accent"></path><path d="M1.941 24.649C3.525 14.614 4.318 10.917 8.015 7.396c4.93-4.929 10.563-5.105 20.07-5.633C14.441 5.107 5.374 16.814 1.941 24.649z" fill="#454545" data-fill-palette-color="accent"></path><path d="M36.271 2.466c2.397 1.202 4.647 2.429 6.786 3.67 0.441-0.207 0.887-0.376 1.335-0.519 0.815-0.257 1.637-0.426 2.463-0.541 0.414-0.057 0.828-0.099 1.247-0.125 0.437 0.295 0.858 0.597 1.239 1.031L48.233 7.06c-0.363 0.022-0.727 0.059-1.088 0.108-0.59 0.082-1.17 0.207-1.733 0.363 0.818 0.5 1.622 1 2.403 1.503 0.235-0.127 0.465-0.266 0.709-0.376 0.875-0.389 1.804-0.672 2.787-0.794 0.492-0.059 0.998-0.077 1.51-0.034 0.484 0.361 0.914 0.776 1.176 1.324-0.551 0.25-0.977 0.491-1.352 0.781-0.349-0.029-0.713-0.018-1.078 0.026-0.562 0.069-1.128 0.235-1.681 0.442 1.192 0.807 2.345 1.616 3.448 2.426 0.146-0.049 0.291-0.101 0.436-0.143 0.903-0.26 1.801-0.392 2.686-0.472 0.441-0.039 0.882-0.064 1.318-0.079 0.447 0.306 0.877 0.613 1.299 1.037-0.422 0.423-0.834 0.74-1.229 1.075-0.404 0.014-0.806 0.037-1.203 0.072-0.386 0.034-0.768 0.082-1.141 0.144 1.372 1.065 2.686 2.128 3.91 3.186 0.404-0.146 0.816-0.267 1.229-0.361 0.399-0.091 0.803-0.16 1.205-0.211 0.441 0.268 0.857 0.55 1.245 0.96l-0.983 1.136c-0.276 0.035-0.549 0.086-0.818 0.143 1.263 1.151 2.445 2.293 3.547 3.417 0.247-0.131 0.501-0.251 0.77-0.348 0.43-0.155 0.879-0.259 1.326-0.309 0.483 0.268 0.9 0.584 1.236 1.036-0.406 0.392-0.739 0.71-0.996 1.063-0.271 0.031-0.531 0.096-0.786 0.183 1.287 1.389 2.468 2.75 3.526 4.063 0.07-0.019 0.14-0.043 0.211-0.062 0.393-0.098 0.79-0.181 1.193-0.246 0.453 0.251 0.896 0.516 1.291 0.921l-0.955 1.164c-0.101 0.016-0.201 0.043-0.303 0.062 0.93 1.231 1.766 2.417 2.51 3.542 0.336-0.114 0.677-0.223 1.025-0.307 0.424-0.101 0.858-0.179 1.307-0.224 0.477 0.275 0.936 0.583 1.281 1.049-0.437 0.379-0.77 0.703-1.076 1.054-0.336 0.033-0.68 0.094-1.021 0.175-0.113 0.027-0.224 0.069-0.336 0.1 3.22 5.25 4.392 8.894 4.708 9.527 3.984-1.105 7.917-1.645 11.189 0.891C74.848 7.815 39.969 1.607 36.271 2.466z" fill="#454545" data-fill-palette-color="accent"></path></g></svg></g></svg></g></svg></g><defs></defs></svg><rect width="378.4242453918452" height="200" fill="none" stroke="none" visibility="hidden"></rect></g></svg></g></svg>